<svg version="1.1" id="Layer_1" xmlns="http://www.w3.org/2000/svg" xmlns:xlink="http://www.w3.org/1999/xlink" x="0px" y="0px"
	 width="100%" viewBox="0 0 503 556" enable-background="new 0 0 503 556" xml:space="preserve">
<path fill="#00A055" opacity="1.000000" stroke="none" 
	d="
M70.000000,1.000000 
	C71.389000,1.000000 72.777992,1.000000 74.906357,1.260709 
	C84.776962,1.699629 93.908211,1.877841 103.196091,2.235910 
	C103.888840,2.295578 104.424957,2.175388 105.431580,2.029738 
	C133.613297,2.022928 161.324509,2.041578 189.130707,2.177873 
	C189.225723,2.295519 189.637360,2.356363 189.637360,2.356363 
	C189.637360,2.356363 189.963242,2.061864 190.386597,2.036614 
	C192.223038,2.026629 193.636124,2.041893 195.332428,2.289977 
	C197.728683,2.365857 199.841721,2.208917 202.425720,2.027570 
	C212.276459,2.016095 221.656250,2.029027 231.306503,2.273573 
	C233.372147,2.351402 235.167313,2.197618 237.433044,2.021263 
	C258.952301,2.018314 280.001038,2.037936 301.343750,2.293557 
	C304.075867,2.371407 306.514038,2.213257 309.401428,2.031728 
	C312.250732,2.025578 314.650848,2.042808 317.320740,2.288830 
	C319.378906,2.362399 321.167236,2.207176 323.390045,2.027920 
	C325.564819,2.020235 327.305115,2.036583 329.328705,2.286391 
	C331.725342,2.365032 333.838715,2.210213 336.423187,2.030981 
	C344.610657,2.021233 352.326996,2.035900 360.313354,2.280619 
	C362.373566,2.358427 364.163788,2.206182 366.424744,2.029625 
	C373.279205,2.022214 379.662903,2.039116 386.299011,2.280241 
	C388.018738,2.354963 389.486023,2.205461 391.416992,2.031662 
	C395.601166,2.020639 399.321625,2.033912 403.359314,2.292707 
	C407.434418,2.377765 411.192352,2.217299 415.392944,2.032725 
	C417.903564,2.024483 419.971527,2.040351 422.195862,2.235950 
	C422.887817,2.296617 423.423462,2.177550 424.361816,2.034646 
	C426.509674,1.673872 428.254852,1.336937 430.000000,1.000000 
	C431.389008,1.000000 432.777985,1.000000 434.786194,1.344953 
	C437.369812,1.965091 439.394653,2.023453 441.288605,2.551323 
	C452.043365,5.548813 461.926880,10.109836 471.307037,16.451847 
	C481.646759,23.442612 489.604584,32.071686 494.665192,43.218090 
	C498.306427,51.238262 500.925140,59.722679 504.000000,68.000000 
	C504.000000,69.389000 504.000000,70.777992 503.740601,72.907524 
	C503.323944,75.955902 503.031219,78.263634 503.029205,80.571609 
	C502.976288,141.348434 502.953461,202.125290 502.464600,262.931213 
	C495.686920,262.971771 489.367615,262.890045 483.054901,263.057037 
	C481.373505,263.101532 479.712280,263.908417 478.047546,264.241821 
	C478.053314,264.118347 478.299194,264.144012 478.069153,264.210876 
	C477.522308,264.369354 477.263306,264.545746 476.647034,264.895508 
	C471.089111,267.332550 465.652710,269.195862 460.847656,272.102722 
	C394.423340,312.286652 328.101959,352.640656 261.721130,392.896576 
	C218.537842,419.084656 175.298096,445.179596 132.085648,471.319550 
	C124.084824,476.159393 116.139702,481.093201 108.087860,485.846405 
	C91.798553,495.462433 75.388977,504.876251 59.159836,514.591980 
	C51.383747,519.247253 43.944782,524.462158 36.281475,529.310303 
	C29.233541,533.769165 27.743769,533.776855 22.373631,527.498291 
	C11.611767,514.916016 4.269478,500.628021 2.406926,483.625763 
	C2.759944,481.304230 2.988717,479.322662 2.989208,477.341064 
	C3.003934,417.911469 2.873025,358.481567 3.022131,299.052338 
	C3.220434,220.014282 3.634134,140.976746 3.952125,61.534004 
	C5.472857,56.363441 6.399842,51.297535 8.620981,46.882744 
	C20.007601,24.250410 37.494740,9.125616 62.819592,3.915319 
	C65.307678,3.403424 67.610947,1.993237 70.000000,1.000000 
M283.730774,267.746643 
	C283.730774,267.746643 283.485107,267.791656 282.825256,267.627930 
	C282.281555,268.242126 281.737854,268.856293 280.645050,269.900635 
	C278.125275,270.951233 275.605469,272.001801 272.233612,273.021973 
	C255.279358,276.489136 238.644485,275.058533 222.221359,269.883636 
	C219.564377,269.046448 216.763641,268.665466 213.326324,267.849884 
	C203.546219,263.420319 194.662674,257.689117 186.844742,250.256088 
	C186.046616,249.497269 183.004150,249.759338 182.120529,250.652771 
	C177.257629,255.569595 172.797638,260.881500 168.091217,265.957520 
	C163.963333,270.409576 159.692764,274.729340 155.239410,279.363281 
	C158.885727,282.475769 161.968719,285.250092 165.200424,287.838745 
	C174.262497,295.097565 184.897766,299.668030 195.570068,305.570953 
	C196.750946,305.692566 197.931839,305.814178 199.015671,305.949829 
	C199.015671,305.949829 199.007095,305.852142 199.442657,306.444702 
	C205.862503,307.974030 212.282333,309.503387 219.483627,310.963135 
	C220.000168,311.037140 220.516708,311.111145 221.282928,311.873413 
	C222.477249,312.271881 223.643799,312.838531 224.870468,313.041107 
	C231.998001,314.218384 232.003296,314.189453 232.003998,321.311890 
	C232.004654,328.073151 232.004120,334.834442 232.004120,341.595703 
	C232.991348,338.494171 232.905777,335.376740 233.009521,332.265656 
	C233.212662,326.173889 233.521393,320.085693 233.919952,314.925232 
	C233.958115,324.254028 233.996292,333.582825 234.628494,343.492798 
	C244.753159,343.662109 254.877808,343.831451 265.592896,343.912262 
	C266.047119,343.560089 266.501373,343.207916 267.009491,342.399597 
	C267.009491,342.399597 267.179749,341.972931 267.899353,341.690277 
	C268.265381,340.163757 268.912567,338.643524 268.947113,337.109558 
	C269.073364,331.502014 269.168823,325.882629 268.935944,320.281860 
	C268.769348,316.274902 269.947388,314.421509 274.297333,313.835297 
	C279.268005,313.165344 284.075684,311.286102 289.298065,309.252716 
	C313.704956,301.295044 329.679810,285.496277 335.881042,259.673340 
	C336.217468,259.139008 336.843018,258.606628 336.846649,258.070038 
	C336.895203,250.832504 337.171997,243.573044 336.683716,236.367035 
	C336.492004,233.537781 334.539886,230.827805 333.048676,227.341141 
	C330.451111,221.975159 328.567322,216.087524 325.106720,211.352280 
	C318.000610,201.628769 308.769226,194.293793 296.761627,190.115005 
	C294.566711,189.083069 292.468506,187.676483 290.160980,187.080795 
	C276.496490,183.553345 262.765900,180.282455 249.093170,176.786026 
	C240.750076,174.652496 232.470825,172.269302 223.867310,169.374771 
	C222.197174,168.395462 220.527023,167.416153 218.686127,165.761703 
	C217.992950,165.204788 217.299759,164.647873 216.223129,163.924011 
	C216.018585,163.705276 215.933960,163.447220 215.966080,162.324387 
	C213.278290,155.323395 214.148163,148.323471 216.545258,140.969696 
	C217.737991,139.652786 218.930710,138.335892 220.854370,136.992432 
	C228.361725,134.794067 235.799820,132.301666 243.403061,130.510239 
	C247.796158,129.475189 252.455688,129.570908 257.728729,129.043869 
	C260.170837,129.668915 262.612976,130.293961 265.577606,131.448029 
	C268.413483,132.239731 271.251984,133.022018 274.084595,133.825241 
	C278.792114,135.160126 283.495819,136.508438 288.090027,137.873703 
	C288.090027,137.873703 288.084930,137.760468 288.414948,138.308517 
	C289.006683,138.485535 289.598389,138.662552 290.104034,138.877563 
	C290.104034,138.877563 290.127655,138.786484 290.335785,139.440552 
	C293.478241,141.280899 296.620667,143.121246 300.096527,145.600113 
	C302.024445,146.717438 303.952332,147.834747 305.776917,148.892181 
	C309.845367,145.092834 313.799957,141.642502 317.470947,137.913025 
	C322.616028,132.685974 327.658447,127.345360 332.466339,121.811417 
	C333.257050,120.901329 333.304230,117.945335 332.540222,117.298103 
	C323.572418,109.700981 314.133423,102.767189 302.750824,98.059891 
	C296.377106,94.129791 289.751129,91.043419 281.443481,91.916794 
	C281.285858,91.841255 281.128265,91.765709 280.716217,91.043297 
	C277.821686,90.338470 274.927155,89.633636 271.505157,88.363045 
	C271.003387,86.713608 270.116791,85.075279 270.068787,83.412743 
	C269.892975,77.320625 270.147919,71.214203 269.897125,65.127319 
	C269.826416,63.411167 268.581787,61.743385 267.950684,60.041523 
	C267.950684,60.041523 267.929688,60.114597 267.721588,59.342140 
	C267.063232,58.913776 266.407867,58.117695 265.746033,58.112270 
	C255.975403,58.032146 246.203934,58.057053 236.432648,58.057053 
	C239.840942,59.006729 243.267624,58.917988 246.688065,59.026199 
	C252.791809,59.219311 258.891815,59.531345 264.067322,59.941555 
	C254.500946,59.941555 244.934586,59.941555 234.940186,59.941555 
	C234.940186,67.527107 235.015884,74.617210 234.897354,81.704063 
	C234.858124,84.049469 234.318542,86.386513 234.011597,87.825027 
	C234.011597,79.074028 234.011597,70.323029 234.011597,61.572033 
	C232.997742,67.343315 233.035370,73.106110 232.985428,78.868141 
	C232.947861,83.202301 234.416901,88.429161 227.411636,88.967690 
	C227.253265,88.979874 227.136154,89.529106 226.134445,89.975182 
	C218.206589,90.090385 210.977234,92.678085 204.368637,96.781281 
	C196.705856,101.538971 188.598740,105.950844 182.030182,111.979134 
	C177.146835,116.460785 174.407288,123.278374 170.080170,129.279129 
	C163.866302,142.341324 162.328110,155.891830 166.166031,170.672653 
	C169.725967,181.628387 175.444458,191.213120 183.881241,199.272964 
	C184.320496,199.469696 184.759766,199.666428 185.085388,199.879364 
	C185.085388,199.879364 185.085876,199.764572 185.312195,200.408630 
	C186.251694,200.915756 187.191193,201.422882 188.042267,201.943420 
	C188.042267,201.943420 188.036819,201.854156 188.306442,202.478729 
	C189.268097,202.941315 190.229752,203.403900 191.093475,203.883270 
	C191.093475,203.883270 191.093613,203.783905 191.332458,204.451904 
	C193.951218,205.589981 196.569992,206.728043 199.090515,207.885513 
	C199.090515,207.885513 199.087601,207.785416 199.352371,208.459076 
	C205.154892,210.285080 210.957413,212.111084 217.288162,214.571777 
	C221.906799,215.473419 226.553009,216.254776 231.137543,217.305252 
	C237.796143,218.830917 244.410248,220.550781 251.335144,222.527817 
	C251.566147,222.723877 251.824158,222.873352 252.004303,222.983932 
	C252.004303,222.983932 251.998322,222.878952 252.483047,223.436874 
	C260.886169,226.289902 269.289276,229.142944 278.385864,232.045929 
	C279.579987,232.714767 280.774109,233.383606 282.292572,234.637619 
	C284.045837,236.197128 285.799133,237.756622 287.709869,239.412476 
	C287.709869,239.412476 287.712952,239.597061 287.416687,240.377441 
	C287.939545,245.055359 289.027924,249.760208 288.806946,254.402725 
	C288.629089,258.138550 286.867432,261.799011 285.750610,265.746674 
	C285.750610,265.746674 285.501495,265.822174 284.867462,265.651978 
	C284.514923,266.271240 284.162384,266.890472 283.730774,267.746643 
z"/>
<path fill="#00A155" opacity="1.000000" stroke="none" 
	d="
M504.000000,482.000000 
	C504.000000,484.042328 504.000000,486.084625 503.650970,488.726715 
	C497.865234,515.278442 482.983154,534.124634 459.873596,546.777100 
	C459.373779,546.634155 459.172791,546.824097 459.135437,547.198364 
	C459.131165,547.152466 459.222382,547.166504 458.895966,547.167664 
	C458.078125,547.538879 457.586731,547.908875 457.097229,548.216675 
	C457.099182,548.154358 457.221405,548.178833 456.804626,548.101929 
	C455.593567,545.960693 454.112244,543.898376 454.106140,541.831726 
	C453.971497,496.260559 454.024017,450.688873 453.919220,405.117554 
	C453.914520,403.076752 452.763885,401.038574 451.905701,398.631073 
	C447.585632,398.192719 443.502991,398.003204 439.431030,398.137726 
	C438.437042,398.170593 437.478210,399.266113 436.167175,399.926086 
	C424.569733,406.935303 413.308289,413.891479 401.767578,420.934875 
	C401.357117,421.355835 401.225861,421.689606 401.042725,421.925232 
	C400.990814,421.827087 400.785675,421.911926 400.585449,421.929871 
	C400.385254,421.947815 399.985718,421.992279 399.728607,422.318176 
	C399.320404,424.620209 399.039612,426.596222 399.037323,428.572540 
	C398.988007,471.035736 398.969849,513.498962 398.480682,555.979858 
	C385.708557,556.003296 373.396301,555.807800 361.096771,556.117126 
	C356.380219,556.235779 354.843140,554.992554 354.883026,550.057495 
	C355.112762,521.619873 355.008575,493.179321 354.943604,464.739929 
	C354.939209,462.830627 354.327057,460.922668 353.732819,458.983795 
	C353.294708,458.992096 353.121368,459.030670 352.710358,459.026672 
	C352.472687,458.984070 352.009552,459.120880 351.558990,459.047150 
	C348.063965,459.030212 345.019470,459.087036 341.692505,459.118073 
	C341.162292,459.362701 340.914551,459.633118 340.328735,459.948456 
	C330.988190,465.519104 321.985748,471.044800 312.831696,476.611511 
	C312.480316,476.742615 312.332275,476.886047 312.174133,477.054504 
	C312.112274,477.026154 312.043823,477.143738 311.790100,477.151489 
	C311.323761,477.411560 311.111115,477.663879 310.936432,477.960815 
	C310.974396,478.005402 310.917755,477.903564 310.561218,477.980347 
	C307.502930,479.402405 304.801239,480.747650 301.817993,482.386902 
	C301.366028,484.485138 301.050171,486.289185 301.047363,488.093719 
	C301.014923,508.917297 300.947723,529.741577 301.104858,550.564026 
	C301.134674,554.513123 300.238556,556.212830 295.880371,556.102844 
	C284.892487,555.825195 273.888702,555.834412 262.900238,556.099365 
	C258.754517,556.199341 257.847137,554.601929 257.919586,550.848145 
	C258.115601,540.690002 258.035645,530.525024 257.932861,520.364136 
	C257.915497,518.646545 257.240540,516.935486 256.905212,515.211792 
	C256.941040,515.202087 256.915070,515.271851 256.754272,514.902710 
	C251.955933,512.017578 247.416702,511.965485 243.003204,515.043396 
	C243.002777,515.011047 243.060577,515.040039 242.844116,515.039246 
	C242.432709,515.380005 242.237793,515.721619 241.983093,516.258545 
	C241.923294,516.453857 241.833008,516.852417 241.899567,516.918091 
	C241.966141,516.983826 241.855652,516.832947 241.528473,516.905396 
	C239.751953,517.954834 238.302597,518.931824 236.627747,519.967407 
	C236.402237,520.025940 236.010132,520.277588 235.788284,520.306763 
	C235.300201,520.492310 235.101486,520.710327 234.635620,521.075439 
	C229.077438,524.352173 223.879593,527.586243 218.625595,530.726379 
	C203.861557,539.550293 203.852417,539.534973 205.000000,557.000000 
	C205.000000,557.000000 204.500000,557.000000 204.223602,556.532593 
	C203.947189,550.907654 203.947189,545.750122 203.947189,540.592590 
	C203.029465,543.902954 202.760559,547.233826 203.095016,550.502991 
	C203.551224,554.962158 201.827271,556.129517 197.469452,556.108215 
	C163.378326,555.941101 129.285995,556.025696 95.194122,555.975281 
	C93.426956,555.972717 91.660568,555.448181 90.208786,554.994629 
	C94.363304,552.078552 98.069412,549.119934 102.068375,546.632019 
	C112.419952,540.191956 122.911606,533.977478 133.326675,527.638977 
	C144.001572,521.142334 154.643402,514.591431 165.315369,508.090027 
	C177.874649,500.438812 190.449310,492.812836 203.019897,485.180237 
	C225.804062,471.346191 248.599579,457.530853 271.371735,443.677094 
	C283.427124,436.342987 295.436066,428.932648 307.479187,421.578308 
	C321.644867,412.927765 335.776337,404.219635 350.017303,395.694489 
	C358.146271,390.828217 366.600403,386.498505 374.663574,381.530243 
	C386.083069,374.493866 397.206024,366.977631 408.585236,359.873871 
	C422.428406,351.231995 436.393921,342.785614 450.328705,334.291046 
	C467.526764,323.807281 484.747681,313.360992 502.140198,303.283813 
	C502.554871,305.794708 502.990265,307.920166 502.991577,310.045898 
	C503.026093,365.288666 503.004822,420.531464 503.054443,475.774231 
	C503.056305,477.849762 503.670929,479.924744 504.000000,482.000000 
z"/>
<path fill="#F3F4F4" opacity="1.000000" stroke="none" 
	d="
M501.958710,302.898529 
	C484.747681,313.360992 467.526764,323.807281 450.328705,334.291046 
	C436.393921,342.785614 422.428406,351.231995 408.585236,359.873871 
	C397.206024,366.977631 386.083069,374.493866 374.663574,381.530243 
	C366.600403,386.498505 358.146271,390.828217 350.017303,395.694489 
	C335.776337,404.219635 321.644867,412.927765 307.479187,421.578308 
	C295.436066,428.932648 283.427124,436.342987 271.371735,443.677094 
	C248.599579,457.530853 225.804062,471.346191 203.019897,485.180237 
	C190.449310,492.812836 177.874649,500.438812 165.315369,508.090027 
	C154.643402,514.591431 144.001572,521.142334 133.326675,527.638977 
	C122.911606,533.977478 112.419952,540.191956 102.068375,546.632019 
	C98.069412,549.119934 94.363304,552.078552 89.876526,554.940063 
	C88.152863,555.705017 87.076431,556.352539 86.000000,557.000000 
	C57.744347,557.000000 29.488695,557.000000 1.000000,557.000000 
	C1.000000,532.312927 1.000000,507.625122 1.305602,482.555786 
	C1.799559,482.771423 1.987915,483.368561 2.176271,483.965729 
	C4.269478,500.628021 11.611767,514.916016 22.373631,527.498291 
	C27.743769,533.776855 29.233541,533.769165 36.281475,529.310303 
	C43.944782,524.462158 51.383747,519.247253 59.159836,514.591980 
	C75.388977,504.876251 91.798553,495.462433 108.087860,485.846405 
	C116.139702,481.093201 124.084824,476.159393 132.085648,471.319550 
	C175.298096,445.179596 218.537842,419.084656 261.721130,392.896576 
	C328.101959,352.640656 394.423340,312.286652 460.847656,272.102722 
	C465.652710,269.195862 471.089111,267.332550 476.909607,264.929413 
	C477.824554,264.631195 478.061859,264.387604 478.299194,264.144012 
	C478.299194,264.144012 478.053314,264.118347 478.518280,264.197205 
	C486.988464,264.127808 494.993713,263.979584 503.243408,263.907776 
	C503.658600,263.989471 503.829315,263.994751 504.000000,264.000000 
	C504.000000,276.354218 504.000000,288.708466 503.692688,301.453766 
	C502.909851,302.196075 502.434265,302.547302 501.958710,302.898529 
z"/>
<path fill="#F3F4F4" opacity="1.000000" stroke="none" 
	d="
M460.004425,546.879639 
	C482.983154,534.124634 497.865234,515.278442 503.650970,489.163239 
	C504.000000,511.608185 504.000000,534.216370 504.000000,557.000000 
	C470.312653,557.000000 436.624969,557.000000 402.347900,556.802368 
	C401.567719,556.355103 401.332733,556.158386 401.008270,556.108215 
	C400.963013,556.201904 400.767853,556.129578 400.845215,555.660950 
	C400.996033,550.785095 401.069519,546.377869 401.311981,541.807861 
	C401.367920,541.106567 401.254883,540.567993 401.068481,539.566345 
	C401.044403,534.392151 401.093658,529.681091 401.311798,524.807251 
	C401.367340,524.106323 401.253937,523.568115 401.065216,522.564758 
	C401.040771,513.721863 401.091644,505.344208 401.343445,496.727173 
	C401.410522,495.336487 401.276642,494.185089 401.069153,492.568146 
	C401.045624,485.390717 401.095673,478.678864 401.345795,471.727234 
	C401.412323,470.336273 401.278839,469.185120 401.072327,467.568176 
	C401.048309,459.056732 401.097351,451.011047 401.365356,442.649170 
	C401.437714,439.566589 401.291138,436.800232 401.072784,433.574463 
	C400.929199,429.380707 400.857422,425.646301 400.785645,421.911926 
	C400.785675,421.911926 400.990814,421.827087 401.238647,421.762421 
	C401.673248,421.414398 401.860046,421.131042 402.046814,420.847656 
	C413.308289,413.891479 424.569733,406.935303 436.665588,399.956177 
	C442.277527,399.952148 447.055023,399.971069 451.911224,400.453430 
	C451.989899,450.802521 451.989899,500.688202 451.989899,551.263428 
	C454.192352,549.964783 455.706879,549.071777 457.221405,548.178833 
	C457.221405,548.178833 457.099182,548.154358 457.406128,548.151489 
	C458.216156,547.821228 458.719269,547.493835 459.222382,547.166504 
	C459.222382,547.166504 459.131165,547.152466 459.368958,547.148071 
	C459.606720,547.143677 460.004425,546.879639 460.004425,546.879639 
z"/>
<path fill="#F3F4F3" opacity="1.000000" stroke="none" 
	d="
M312.983337,476.570496 
	C321.985748,471.044800 330.988190,465.519104 340.571899,459.866608 
	C341.427155,459.541168 341.701080,459.342499 341.975006,459.143829 
	C345.019470,459.087036 348.063965,459.030212 351.557098,459.508057 
	C352.003845,492.361786 352.001923,524.680908 352.000000,557.000000 
	C336.312439,557.000000 320.624878,557.000000 304.456482,556.577271 
	C304.297699,553.032776 304.881653,549.912415 304.898315,546.789062 
	C304.989807,529.658264 305.112701,512.524231 304.855988,495.396790 
	C304.757629,488.833557 303.517120,482.228851 310.777222,478.371063 
	C310.878326,478.317322 310.873260,478.063843 310.917755,477.903564 
	C310.917755,477.903564 310.974396,478.005402 311.167175,477.901001 
	C311.646240,477.640045 311.874176,477.422424 312.043823,477.143738 
	C312.043823,477.143738 312.112274,477.026154 312.336975,477.036102 
	C312.783264,476.959412 312.923828,476.800903 312.983337,476.570496 
z"/>
<path fill="#F3F4F3" opacity="1.000000" stroke="none" 
	d="
M236.010132,520.277588 
	C236.010132,520.277588 236.402237,520.025940 236.998322,519.958984 
	C239.014832,518.872375 240.435242,517.852661 241.855652,516.832947 
	C241.855652,516.832947 241.966141,516.983826 242.371033,516.924561 
	C243.274200,516.872070 243.772430,516.881714 244.270706,516.885193 
	C254.229889,516.954834 254.169174,516.954163 254.081100,526.441345 
	C253.986526,536.626892 254.021545,546.813721 254.000000,557.000000 
	C237.979111,557.000000 221.958206,557.000000 205.468658,557.000000 
	C203.852417,539.534973 203.861557,539.550293 218.625595,530.726379 
	C223.879593,527.586243 229.077438,524.352173 234.858414,521.042847 
	C235.710709,520.797852 235.908798,520.582153 236.010132,520.277588 
z"/>
<path fill="#F3F4F4" opacity="1.000000" stroke="none" 
	d="
M69.531342,1.000000 
	C67.610947,1.993237 65.307678,3.403424 62.819592,3.915319 
	C37.494740,9.125616 20.007601,24.250410 8.620981,46.882744 
	C6.399842,51.297535 5.472857,56.363441 3.609962,61.711075 
	C2.513981,65.195412 1.756991,68.097710 1.000000,71.000000 
	C1.000000,47.740337 1.000000,24.480675 1.000000,1.000000 
	C23.687082,1.000000 46.374882,1.000000 69.531342,1.000000 
z"/>
<path fill="#F2F4F3" opacity="1.000000" stroke="none" 
	d="
M504.000000,67.531342 
	C500.925140,59.722679 498.306427,51.238262 494.665192,43.218090 
	C489.604584,32.071686 481.646759,23.442612 471.307037,16.451847 
	C461.926880,10.109836 452.043365,5.548813 441.288605,2.551323 
	C439.394653,2.023453 437.369812,1.965091 435.202698,1.344953 
	C457.925781,1.000000 480.851532,1.000000 504.000000,1.000000 
	C504.000000,23.020393 504.000000,45.041538 504.000000,67.531342 
z"/>
<path fill="#008E2D" opacity="1.000000" stroke="none" 
	d="
M1.000000,71.333328 
	C1.756991,68.097710 2.513981,65.195412 3.613134,62.116055 
	C3.634134,140.976746 3.220434,220.014282 3.022131,299.052338 
	C2.873025,358.481567 3.003934,417.911469 2.989208,477.341064 
	C2.988717,479.322662 2.759944,481.304230 2.406926,483.625763 
	C1.987915,483.368561 1.799559,482.771423 1.305602,482.087128 
	C1.000000,480.933319 1.000000,479.866669 1.310689,478.115479 
	C1.753703,475.949799 2.001781,474.468567 2.001895,472.987366 
	C2.012085,341.203857 2.006608,209.420364 1.954363,77.636871 
	C1.953750,76.091125 1.331875,74.545616 1.000000,73.000000 
	C1.000000,72.555557 1.000000,72.111107 1.000000,71.333328 
z"/>
<path fill="#29B479" opacity="1.000000" stroke="none" 
	d="
M1.000000,73.468658 
	C1.331875,74.545616 1.953750,76.091125 1.954363,77.636871 
	C2.006608,209.420364 2.012085,341.203857 2.001895,472.987366 
	C2.001781,474.468567 1.753703,475.949799 1.310689,477.715515 
	C1.000000,343.312439 1.000000,208.624878 1.000000,73.468658 
z"/>
<path fill="#00881C" opacity="1.000000" stroke="none" 
	d="
M317.050934,2.060039 
	C314.650848,2.042808 312.250732,2.025578 308.964142,2.011963 
	C305.735016,2.029572 303.392365,2.043565 301.049744,2.057558 
	C280.001038,2.037936 258.952301,2.018314 237.010834,2.002395 
	C234.424072,2.018052 232.730057,2.030005 231.036041,2.041959 
	C221.656250,2.029027 212.276459,2.016095 201.995270,2.009398 
	C199.078979,2.029474 197.064102,2.043315 195.049225,2.057156 
	C193.636124,2.041893 192.223038,2.026629 190.154938,2.025302 
	C189.499924,2.039240 189.035706,2.060227 189.035706,2.060227 
	C161.324509,2.041578 133.613297,2.022928 105.111679,2.013335 
	C103.894005,2.033611 103.466728,2.044832 103.039459,2.056053 
	C93.908211,1.877841 84.776962,1.699629 75.322861,1.260709 
	C193.020889,1.000000 311.041779,1.000000 429.531342,1.000000 
	C428.254852,1.336937 426.509674,1.673872 424.042297,2.017381 
	C422.893188,2.034709 422.466339,2.045464 422.039490,2.056219 
	C419.971527,2.040351 417.903564,2.024483 414.938416,2.013814 
	C410.374847,2.028403 406.708466,2.037794 403.042084,2.047184 
	C399.321625,2.033912 395.601166,2.020639 391.009033,2.012590 
	C388.773773,2.030548 387.410187,2.043283 386.046570,2.056018 
	C379.662903,2.039116 373.279205,2.022214 366.003906,2.010505 
	C363.422607,2.027320 361.733002,2.038943 360.043365,2.050566 
	C352.326996,2.035900 344.610657,2.021233 335.992920,2.012460 
	C333.076172,2.029879 331.060791,2.041405 329.045441,2.052932 
	C327.305115,2.036583 325.564819,2.020235 322.969299,2.010262 
	C320.426361,2.031105 318.738647,2.045572 317.050934,2.060039 
z"/>
<path fill="#CCEBDE" opacity="1.000000" stroke="none" 
	d="
M310.561218,477.980347 
	C310.873260,478.063843 310.878326,478.317322 310.777222,478.371063 
	C303.517120,482.228851 304.757629,488.833557 304.855988,495.396790 
	C305.112701,512.524231 304.989807,529.658264 304.898315,546.789062 
	C304.881653,549.912415 304.297699,553.032776 303.987823,556.577271 
	C303.555542,557.000000 303.111115,557.000000 302.436310,556.541138 
	C302.170471,531.419189 302.134979,506.756073 302.099518,482.092926 
	C304.801239,480.747650 307.502930,479.402405 310.561218,477.980347 
z"/>
<path fill="#00881C" opacity="1.000000" stroke="none" 
	d="
M504.000000,263.531342 
	C503.829315,263.994751 503.658600,263.989471 503.229889,263.675079 
	C502.971863,263.365997 502.925476,262.902130 502.925476,262.902130 
	C502.953461,202.125290 502.976288,141.348434 503.029205,80.571609 
	C503.031219,78.263634 503.323944,75.955902 503.740601,73.324028 
	C504.000000,136.354233 504.000000,199.708450 504.000000,263.531342 
z"/>
<path fill="#00881C" opacity="1.000000" stroke="none" 
	d="
M502.140198,303.283813 
	C502.434265,302.547302 502.909851,302.196075 503.692688,301.922424 
	C504.000000,361.687561 504.000000,421.375122 504.000000,481.531342 
	C503.670929,479.924744 503.056305,477.849762 503.054443,475.774231 
	C503.004822,420.531464 503.026093,365.288666 502.991577,310.045898 
	C502.990265,307.920166 502.554871,305.794708 502.140198,303.283813 
z"/>
<path fill="#00881C" opacity="1.000000" stroke="none" 
	d="
M301.817993,482.386902 
	C302.134979,506.756073 302.170471,531.419189 302.102966,556.541138 
	C287.312439,557.000000 272.624878,557.000000 257.399841,556.535767 
	C256.864746,542.454773 256.867065,528.838135 256.869415,515.221436 
	C257.240540,516.935486 257.915497,518.646545 257.932861,520.364136 
	C258.035645,530.525024 258.115601,540.690002 257.919586,550.848145 
	C257.847137,554.601929 258.754517,556.199341 262.900238,556.099365 
	C273.888702,555.834412 284.892487,555.825195 295.880371,556.102844 
	C300.238556,556.212830 301.134674,554.513123 301.104858,550.564026 
	C300.947723,529.741577 301.014923,508.917297 301.047363,488.093719 
	C301.050171,486.289185 301.366028,484.485138 301.817993,482.386902 
z"/>
<path fill="#00881C" opacity="1.000000" stroke="none" 
	d="
M353.997559,459.014099 
	C354.327057,460.922668 354.939209,462.830627 354.943604,464.739929 
	C355.008575,493.179321 355.112762,521.619873 354.883026,550.057495 
	C354.843140,554.992554 356.380219,556.235779 361.096771,556.117126 
	C373.396301,555.807800 385.708557,556.003296 398.745239,555.987305 
	C399.650879,555.981445 399.826996,555.985840 400.190826,556.044006 
	C400.378571,556.097778 400.767853,556.129578 400.767853,556.129578 
	C400.767853,556.129578 400.963013,556.201904 400.954407,556.352173 
	C400.963867,556.668274 400.981934,556.834167 401.000000,557.000000 
	C385.645782,557.000000 370.291534,557.000000 354.436157,556.532227 
	C353.955841,523.714355 353.976715,491.364227 353.997559,459.014099 
z"/>
<path fill="#CCEBDE" opacity="1.000000" stroke="none" 
	d="
M256.905212,515.211792 
	C256.867065,528.838135 256.864746,542.454773 256.931213,556.535767 
	C256.250000,557.000000 255.500000,557.000000 254.375000,557.000000 
	C254.021545,546.813721 253.986526,536.626892 254.081100,526.441345 
	C254.169174,516.954163 254.229889,516.954834 244.270706,516.885193 
	C243.772430,516.881714 243.274200,516.872070 242.304474,516.858887 
	C241.833008,516.852417 241.923294,516.453857 242.230469,516.180298 
	C242.711960,515.617859 242.886276,515.328979 243.060577,515.040039 
	C243.060577,515.040039 243.002777,515.011047 243.465652,514.983765 
	C248.257370,515.061523 252.586227,515.166687 256.915070,515.271851 
	C256.915070,515.271851 256.941040,515.202087 256.905212,515.211792 
z"/>
<path fill="#00881C" opacity="1.000000" stroke="none" 
	d="
M86.468658,557.000000 
	C87.076431,556.352539 88.152863,555.705017 89.561554,555.112061 
	C91.660568,555.448181 93.426956,555.972717 95.194122,555.975281 
	C129.285995,556.025696 163.378326,555.941101 197.469452,556.108215 
	C201.827271,556.129517 203.551224,554.962158 203.095016,550.502991 
	C202.760559,547.233826 203.029465,543.902954 203.947189,540.592590 
	C203.947189,545.750122 203.947189,550.907654 203.973602,556.532593 
	C164.979111,557.000000 125.958214,557.000000 86.468658,557.000000 
z"/>
<path fill="#FFFCFE" opacity="1.000000" stroke="none" 
	d="
M352.250000,557.000000 
	C352.001923,524.680908 352.003845,492.361786 352.007660,459.581787 
	C352.009552,459.120880 352.472687,458.984070 352.753662,459.489105 
	C353.023102,492.329437 353.011566,524.664734 353.000000,557.000000 
	C353.000000,557.000000 352.500000,557.000000 352.250000,557.000000 
z"/>
<path fill="#8CD3B6" opacity="1.000000" stroke="none" 
	d="
M353.250000,557.000000 
	C353.011566,524.664734 353.023102,492.329437 352.991333,459.531677 
	C353.121368,459.030670 353.294708,458.992096 353.732819,458.983795 
	C353.976715,491.364227 353.955841,523.714355 353.967468,556.532227 
	C354.000000,557.000000 353.500000,557.000000 353.250000,557.000000 
z"/>
<path fill="#FFFCFE" opacity="1.000000" stroke="none" 
	d="
M401.250000,557.000000 
	C400.981934,556.834167 400.963867,556.668274 400.999634,556.258484 
	C401.332733,556.158386 401.567719,556.355103 401.879242,556.802368 
	C402.000000,557.000000 401.500000,557.000000 401.250000,557.000000 
z"/>
<path fill="#F3F4F4" opacity="1.000000" stroke="none" 
	d="
M280.970642,91.690170 
	C281.128265,91.765709 281.285858,91.841255 282.085510,91.977043 
	C289.461975,94.256111 296.196411,96.474937 302.930817,98.693764 
	C314.133423,102.767189 323.572418,109.700981 332.540222,117.298103 
	C333.304230,117.945335 333.257050,120.901329 332.466339,121.811417 
	C327.658447,127.345360 322.616028,132.685974 317.470947,137.913025 
	C313.799957,141.642502 309.845367,145.092834 305.776917,148.892181 
	C303.952332,147.834747 302.024445,146.717438 299.866241,144.959015 
	C296.466522,142.474106 293.297089,140.630295 290.127655,138.786484 
	C290.127655,138.786484 290.104034,138.877563 289.973999,138.602280 
	C289.257629,138.138153 288.671295,137.949310 288.084930,137.760468 
	C288.084930,137.760468 288.090027,137.873703 287.927795,137.576843 
	C280.195374,135.159668 272.625244,133.039337 265.055084,130.919022 
	C262.612976,130.293961 260.170837,129.668915 256.897766,129.027740 
	C249.315475,129.342773 242.398010,128.880875 235.863998,130.249573 
	C230.384888,131.397308 225.353210,134.681015 220.123428,137.018982 
	C218.930710,138.335892 217.737991,139.652786 215.943512,141.275970 
	C211.877380,148.878326 211.291092,156.090668 215.969254,163.149841 
	C215.933960,163.447220 216.018585,163.705276 216.558868,164.310272 
	C217.548691,165.276642 218.202789,165.856750 218.856873,166.436859 
	C220.527023,167.416153 222.197174,168.395462 224.068115,170.047729 
	C229.555313,172.485977 234.767059,174.530838 240.141556,175.966125 
	C259.045685,181.014557 278.005676,185.853592 296.944489,190.772095 
	C308.769226,194.293793 318.000610,201.628769 325.106720,211.352280 
	C328.567322,216.087524 330.451111,221.975159 333.322449,228.060699 
	C336.362457,239.053131 336.412170,249.462158 335.158142,259.936554 
	C329.679810,285.496277 313.704956,301.295044 288.697784,309.625000 
	C281.204102,311.130432 274.310699,312.263550 267.179749,313.435699 
	C267.179749,323.175598 267.179749,332.574249 267.179749,341.972931 
	C267.179749,341.972931 267.009491,342.399597 266.657349,342.684235 
	C265.870911,343.032043 265.436615,343.095184 264.538330,343.087250 
	C254.061020,342.981323 244.047745,342.946472 234.034454,342.911621 
	C233.996292,333.582825 233.958115,324.254028 233.768448,314.080383 
	C229.422379,312.552063 225.227829,311.868622 221.033264,311.185181 
	C220.516708,311.111145 220.000168,311.037140 218.825745,310.759430 
	C211.780945,308.987854 205.394028,307.419983 199.007095,305.852142 
	C199.007095,305.852142 199.015671,305.949829 198.883163,305.608459 
	C197.505630,305.218323 196.260605,305.169586 195.015579,305.120819 
	C184.897766,299.668030 174.262497,295.097565 165.200424,287.838745 
	C161.968719,285.250092 158.885727,282.475769 155.239410,279.363281 
	C159.692764,274.729340 163.963333,270.409576 168.091217,265.957520 
	C172.797638,260.881500 177.257629,255.569595 182.120529,250.652771 
	C183.004150,249.759338 186.046616,249.497269 186.844742,250.256088 
	C194.662674,257.689117 203.546219,263.420319 213.881378,268.245972 
	C226.341568,273.309143 238.620026,276.643829 251.456467,276.203217 
	C258.693726,275.954773 265.877686,274.153900 273.085663,273.052368 
	C275.605469,272.001801 278.125275,270.951233 281.186523,269.584412 
	C282.313721,268.776031 282.899414,268.283844 283.485107,267.791687 
	C283.485107,267.791656 283.730774,267.746643 283.965240,267.486755 
	C284.633636,266.758606 285.067566,266.290375 285.501495,265.822174 
	C285.501495,265.822174 285.750610,265.746674 286.010895,265.390198 
	C291.967224,256.850464 292.323944,248.364548 287.712952,239.597061 
	C287.712952,239.597061 287.709869,239.412476 287.460632,239.087875 
	C285.463654,237.193008 283.715942,235.622726 281.968201,234.052460 
	C280.774109,233.383606 279.579987,232.714767 277.914673,231.708160 
	C268.961731,228.539902 260.480042,225.709442 251.998322,222.878967 
	C251.998322,222.878952 252.004303,222.983932 251.964264,222.739288 
	C251.630585,222.392365 251.336960,222.290085 251.043320,222.187820 
	C244.410248,220.550781 237.796143,218.830917 231.137543,217.305252 
	C226.553009,216.254776 221.906799,215.473419 216.859253,213.945236 
	C210.649445,211.474274 204.868515,209.629852 199.087601,207.785416 
	C199.087601,207.785416 199.090515,207.885513 198.928238,207.595093 
	C196.208511,206.131088 193.651062,204.957504 191.093613,203.783905 
	C191.093613,203.783905 191.093475,203.883270 190.972809,203.603699 
	C189.913681,202.834137 188.975250,202.344147 188.036819,201.854156 
	C188.036819,201.854156 188.042267,201.943420 187.937439,201.653625 
	C186.917038,200.830750 186.001465,200.297653 185.085876,199.764572 
	C185.085876,199.764572 185.085388,199.879364 185.042618,199.635132 
	C184.703461,199.235809 184.407074,199.080734 184.110687,198.925644 
	C175.444458,191.213120 169.725967,181.628387 166.069946,169.955811 
	C165.624878,155.617050 165.598358,142.033142 170.712921,129.055542 
	C174.407288,123.278374 177.146835,116.460785 182.030182,111.979134 
	C188.598740,105.950844 196.705856,101.538971 204.368637,96.781281 
	C210.977234,92.678085 218.206589,90.090385 226.958359,89.898544 
	C229.857422,89.457069 231.932571,89.092224 234.007721,88.727379 
	C234.318542,86.386513 234.858124,84.049469 234.897354,81.704063 
	C235.015884,74.617210 234.940186,67.527107 234.940186,59.941555 
	C244.934586,59.941555 254.500946,59.941555 264.893982,59.935959 
	C266.456970,59.991776 267.193329,60.053188 267.929688,60.114597 
	C267.929688,60.114597 267.950684,60.041523 267.965851,60.509682 
	C267.991516,69.125664 268.142914,77.276970 267.941345,85.419548 
	C267.863525,88.561440 268.625214,90.207214 272.372009,89.930359 
	C275.490845,90.573204 278.230743,91.131683 280.970642,91.690170 
z"/>
<path fill="#0A933C" opacity="1.000000" stroke="none" 
	d="
M296.853058,190.443542 
	C278.005676,185.853592 259.045685,181.014557 240.141556,175.966125 
	C234.767059,174.530838 229.555313,172.485977 224.215912,170.359467 
	C232.470825,172.269302 240.750076,174.652496 249.093170,176.786026 
	C262.765900,180.282455 276.496490,183.553345 290.160980,187.080795 
	C292.468506,187.676483 294.566711,189.083069 296.853058,190.443542 
z"/>
<path fill="#0A933C" opacity="1.000000" stroke="none" 
	d="
M272.659637,273.037170 
	C265.877686,274.153900 258.693726,275.954773 251.456467,276.203217 
	C238.620026,276.643829 226.341568,273.309143 214.232880,268.357819 
	C216.763641,268.665466 219.564377,269.046448 222.221359,269.883636 
	C238.644485,275.058533 255.279358,276.489136 272.659637,273.037170 
z"/>
<path fill="#049840" opacity="1.000000" stroke="none" 
	d="
M267.539551,341.831604 
	C267.179749,332.574249 267.179749,323.175598 267.179749,313.435699 
	C274.310699,312.263550 281.204102,311.130432 288.525848,309.964813 
	C284.075684,311.286102 279.268005,313.165344 274.297333,313.835297 
	C269.947388,314.421509 268.769348,316.274902 268.935944,320.281860 
	C269.168823,325.882629 269.073364,331.502014 268.947113,337.109558 
	C268.912567,338.643524 268.265381,340.163757 267.539551,341.831604 
z"/>
<path fill="#049840" opacity="1.000000" stroke="none" 
	d="
M170.396545,129.167343 
	C165.598358,142.033142 165.624878,155.617050 165.902313,169.603882 
	C162.328110,155.891830 163.866302,142.341324 170.396545,129.167343 
z"/>
<path fill="#049840" opacity="1.000000" stroke="none" 
	d="
M271.993042,89.845993 
	C268.625214,90.207214 267.863525,88.561440 267.941345,85.419548 
	C268.142914,77.276970 267.991516,69.125664 267.928284,60.515633 
	C268.581787,61.743385 269.826416,63.411167 269.897125,65.127319 
	C270.147919,71.214203 269.892975,77.320625 270.068787,83.412743 
	C270.116791,85.075279 271.003387,86.713608 271.756317,88.875534 
	C272.007477,89.388023 271.993042,89.845993 271.993042,89.845993 
z"/>
<path fill="#0A933C" opacity="1.000000" stroke="none" 
	d="
M220.488892,137.005707 
	C225.353210,134.681015 230.384888,131.397308 235.863998,130.249573 
	C242.398010,128.880875 249.315475,129.342773 256.531067,129.084656 
	C252.455688,129.570908 247.796158,129.475189 243.403061,130.510239 
	C235.799820,132.301666 228.361725,134.794067 220.488892,137.005707 
z"/>
<path fill="#0A933C" opacity="1.000000" stroke="none" 
	d="
M335.519592,259.804932 
	C336.412170,249.462158 336.362457,239.053131 333.492828,228.421890 
	C334.539886,230.827805 336.492004,233.537781 336.683716,236.367035 
	C337.171997,243.573044 336.895203,250.832504 336.846649,258.070038 
	C336.843018,258.606628 336.217468,259.139008 335.519592,259.804932 
z"/>
<path fill="#0A933C" opacity="1.000000" stroke="none" 
	d="
M221.158096,311.529297 
	C225.227829,311.868622 229.422379,312.552063 233.701675,313.615784 
	C233.521393,320.085693 233.212662,326.173889 233.009521,332.265656 
	C232.905777,335.376740 232.991348,338.494171 232.004120,341.595703 
	C232.004120,334.834442 232.004654,328.073151 232.003998,321.311890 
	C232.003296,314.189453 231.998001,314.218384 224.870468,313.041107 
	C223.643799,312.838531 222.477249,312.271881 221.158096,311.529297 
z"/>
<path fill="#0A933C" opacity="1.000000" stroke="none" 
	d="
M287.564819,239.987244 
	C292.323944,248.364548 291.967224,256.850464 286.039856,265.263306 
	C286.867432,261.799011 288.629089,258.138550 288.806946,254.402725 
	C289.027924,249.760208 287.939545,245.055359 287.564819,239.987244 
z"/>
<path fill="#0A933C" opacity="1.000000" stroke="none" 
	d="
M252.240692,223.157928 
	C260.480042,225.709442 268.961731,228.539902 277.567932,231.683167 
	C269.289276,229.142944 260.886169,226.289902 252.240692,223.157928 
z"/>
<path fill="#0A933C" opacity="1.000000" stroke="none" 
	d="
M265.316345,131.183533 
	C272.625244,133.039337 280.195374,135.159668 287.983337,137.565552 
	C283.495819,136.508438 278.792114,135.160126 274.084595,133.825241 
	C271.251984,133.022018 268.413483,132.239731 265.316345,131.183533 
z"/>
<path fill="#049840" opacity="1.000000" stroke="none" 
	d="
M234.009659,88.276199 
	C231.932571,89.092224 229.857422,89.457069 227.391037,89.824875 
	C227.136154,89.529106 227.253265,88.979874 227.411636,88.967690 
	C234.416901,88.429161 232.947861,83.202301 232.985428,78.868141 
	C233.035370,73.106110 232.997742,67.343315 234.011597,61.572033 
	C234.011597,70.323029 234.011597,79.074028 234.009659,88.276199 
z"/>
<path fill="#049840" opacity="1.000000" stroke="none" 
	d="
M267.825623,59.728371 
	C267.193329,60.053188 266.456970,59.991776 265.356995,59.862011 
	C258.891815,59.531345 252.791809,59.219311 246.688065,59.026199 
	C243.267624,58.917988 239.840942,59.006729 236.432648,58.057053 
	C246.203934,58.057053 255.975403,58.032146 265.746033,58.112270 
	C266.407867,58.117695 267.063232,58.913776 267.825623,59.728371 
z"/>
<path fill="#0A933C" opacity="1.000000" stroke="none" 
	d="
M302.840820,98.376831 
	C296.196411,96.474937 289.461975,94.256111 282.345215,91.941010 
	C289.751129,91.043419 296.377106,94.129791 302.840820,98.376831 
z"/>
<path fill="#0A933C" opacity="1.000000" stroke="none" 
	d="
M215.967667,162.737122 
	C211.291092,156.090668 211.877380,148.878326 215.657059,141.453033 
	C214.148163,148.323471 213.278290,155.323395 215.967667,162.737122 
z"/>
<path fill="#0A933C" opacity="1.000000" stroke="none" 
	d="
M199.224884,306.148438 
	C205.394028,307.419983 211.780945,308.987854 218.435028,310.794250 
	C212.282333,309.503387 205.862503,307.974030 199.224884,306.148438 
z"/>
<path fill="#008E2D" opacity="1.000000" stroke="none" 
	d="
M234.331482,343.202209 
	C244.047745,342.946472 254.061020,342.981323 264.540222,343.297852 
	C265.006104,343.579529 265.002472,344.000763 265.002472,344.000793 
	C254.877808,343.831451 244.753159,343.662109 234.331482,343.202209 
z"/>
<path fill="#0A933C" opacity="1.000000" stroke="none" 
	d="
M199.219986,208.122253 
	C204.868515,209.629852 210.649445,211.474274 216.595154,213.627899 
	C210.957413,212.111084 205.154892,210.285080 199.219986,208.122253 
z"/>
<path fill="#008E2D" opacity="1.000000" stroke="none" 
	d="
M502.464600,262.931213 
	C502.925476,262.902130 502.971863,263.365997 502.985413,263.598694 
	C494.993713,263.979584 486.988464,264.127808 478.512512,264.320679 
	C479.712280,263.908417 481.373505,263.101532 483.054901,263.057037 
	C489.367615,262.890045 495.686920,262.971771 502.464600,262.931213 
z"/>
<path fill="#0A933C" opacity="1.000000" stroke="none" 
	d="
M290.231720,139.113525 
	C293.297089,140.630295 296.466522,142.474106 299.699524,144.639755 
	C296.620667,143.121246 293.478241,141.280899 290.231720,139.113525 
z"/>
<path fill="#0A933C" opacity="1.000000" stroke="none" 
	d="
M272.372009,89.930359 
	C271.993042,89.845993 272.007477,89.388023 272.020050,89.158417 
	C274.927155,89.633636 277.821686,90.338470 280.843445,91.366730 
	C278.230743,91.131683 275.490845,90.573204 272.372009,89.930359 
z"/>
<path fill="#02A860" opacity="1.000000" stroke="none" 
	d="
M403.359314,2.292708 
	C406.708466,2.037794 410.374847,2.028403 414.495728,2.037923 
	C411.192352,2.217299 407.434418,2.377765 403.359314,2.292708 
z"/>
<path fill="#0A933C" opacity="1.000000" stroke="none" 
	d="
M282.130371,234.345032 
	C283.715942,235.622726 285.463654,237.193008 287.381897,239.039703 
	C285.799133,237.756622 284.045837,236.197128 282.130371,234.345032 
z"/>
<path fill="#0A933C" opacity="1.000000" stroke="none" 
	d="
M191.213043,204.117905 
	C193.651062,204.957504 196.208511,206.131088 198.977356,207.585403 
	C196.569992,206.728043 193.951218,205.589981 191.213043,204.117905 
z"/>
<path fill="#02A860" opacity="1.000000" stroke="none" 
	d="
M301.343750,2.293557 
	C303.392365,2.043565 305.735016,2.029572 308.514893,2.035344 
	C306.514038,2.213257 304.075867,2.371407 301.343750,2.293557 
z"/>
<path fill="#02A860" opacity="1.000000" stroke="none" 
	d="
M195.332428,2.289977 
	C197.064102,2.043315 199.078979,2.029474 201.524323,2.033805 
	C199.841721,2.208917 197.728683,2.365857 195.332428,2.289977 
z"/>
<path fill="#02A860" opacity="1.000000" stroke="none" 
	d="
M329.328705,2.286391 
	C331.060791,2.041405 333.076172,2.029879 335.521790,2.036874 
	C333.838715,2.210213 331.725342,2.365032 329.328705,2.286391 
z"/>
<path fill="#02A860" opacity="1.000000" stroke="none" 
	d="
M231.306503,2.273573 
	C232.730057,2.030005 234.424072,2.018052 236.540283,2.024966 
	C235.167313,2.197618 233.372147,2.351402 231.306503,2.273573 
z"/>
<path fill="#02A860" opacity="1.000000" stroke="none" 
	d="
M360.313354,2.280619 
	C361.733002,2.038943 363.422607,2.027320 365.533112,2.034818 
	C364.163788,2.206182 362.373566,2.358427 360.313354,2.280619 
z"/>
<path fill="#02A860" opacity="1.000000" stroke="none" 
	d="
M317.320740,2.288830 
	C318.738647,2.045572 320.426361,2.031105 322.534851,2.034296 
	C321.167236,2.207176 319.378906,2.362399 317.320740,2.288830 
z"/>
<path fill="#02A860" opacity="1.000000" stroke="none" 
	d="
M386.299011,2.280241 
	C387.410187,2.043283 388.773773,2.030548 390.545349,2.036886 
	C389.486023,2.205461 388.018738,2.354963 386.299011,2.280241 
z"/>
<path fill="#0A933C" opacity="1.000000" stroke="none" 
	d="
M195.292816,305.345886 
	C196.260605,305.169586 197.505630,305.218323 198.931686,305.601440 
	C197.931839,305.814178 196.750946,305.692566 195.292816,305.345886 
z"/>
<path fill="#0A933C" opacity="1.000000" stroke="none" 
	d="
M188.171631,202.166443 
	C188.975250,202.344147 189.913681,202.834137 191.021759,203.595291 
	C190.229752,203.403900 189.268097,202.941315 188.171631,202.166443 
z"/>
<path fill="#0A933C" opacity="1.000000" stroke="none" 
	d="
M185.199036,200.086609 
	C186.001465,200.297653 186.917038,200.830750 187.981659,201.646912 
	C187.191193,201.422882 186.251694,200.915756 185.199036,200.086609 
z"/>
<path fill="#0A933C" opacity="1.000000" stroke="none" 
	d="
M283.155182,267.709808 
	C282.899414,268.283844 282.313721,268.776031 281.461060,269.369324 
	C281.737854,268.856293 282.281555,268.242126 283.155182,267.709808 
z"/>
<path fill="#0A933C" opacity="1.000000" stroke="none" 
	d="
M285.184479,265.737061 
	C285.067566,266.290375 284.633636,266.758606 284.004761,267.368286 
	C284.162384,266.890472 284.514923,266.271240 285.184479,265.737061 
z"/>
<path fill="#0A933C" opacity="1.000000" stroke="none" 
	d="
M218.771500,166.099274 
	C218.202789,165.856750 217.548691,165.276642 216.750580,164.393753 
	C217.299759,164.647873 217.992950,165.204788 218.771500,166.099274 
z"/>
<path fill="#02A860" opacity="1.000000" stroke="none" 
	d="
M103.196091,2.235910 
	C103.466728,2.044832 103.894005,2.033611 104.641174,2.038794 
	C104.424957,2.175388 103.888840,2.295578 103.196091,2.235910 
z"/>
<path fill="#02A860" opacity="1.000000" stroke="none" 
	d="
M422.195862,2.235951 
	C422.466339,2.045464 422.893188,2.034709 423.639557,2.041219 
	C423.423462,2.177550 422.887817,2.296617 422.195862,2.235951 
z"/>
<path fill="#0A933C" opacity="1.000000" stroke="none" 
	d="
M288.249939,138.034485 
	C288.671295,137.949310 289.257629,138.138153 290.017059,138.583282 
	C289.598389,138.662552 289.006683,138.485535 288.249939,138.034485 
z"/>
<path fill="#0A933C" opacity="1.000000" stroke="none" 
	d="
M183.995972,199.099304 
	C184.407074,199.080734 184.703461,199.235809 185.099426,199.627045 
	C184.759766,199.666428 184.320496,199.469696 183.995972,199.099304 
z"/>
<path fill="#049840" opacity="1.000000" stroke="none" 
	d="
M265.297668,343.956512 
	C265.002472,344.000763 265.006104,343.579529 265.004211,343.368927 
	C265.436615,343.095184 265.870911,343.032043 266.630402,342.912292 
	C266.501373,343.207916 266.047119,343.560089 265.297668,343.956512 
z"/>
<path fill="#008E2D" opacity="1.000000" stroke="none" 
	d="
M478.069153,264.210876 
	C478.061859,264.387604 477.824554,264.631195 477.324677,264.840912 
	C477.263306,264.545746 477.522308,264.369354 478.069153,264.210876 
z"/>
<path fill="#0A933C" opacity="1.000000" stroke="none" 
	d="
M251.189240,222.357819 
	C251.336960,222.290085 251.630585,222.392365 252.016693,222.735443 
	C251.824158,222.873352 251.566147,222.723877 251.189240,222.357819 
z"/>
<path fill="#02A860" opacity="1.000000" stroke="none" 
	d="
M189.130707,2.177873 
	C189.035706,2.060227 189.499924,2.039240 189.731583,2.050552 
	C189.963242,2.061864 189.637360,2.356363 189.637360,2.356363 
	C189.637360,2.356363 189.225723,2.295519 189.130707,2.177873 
z"/>
<path fill="#009B43" opacity="1.000000" stroke="none" 
	d="
M456.804626,548.101929 
	C455.706879,549.071777 454.192352,549.964783 451.989899,551.263428 
	C451.989899,500.688202 451.989899,450.802521 451.987427,400.204956 
	C452.038971,399.328400 452.092987,399.163788 452.147003,398.999176 
	C452.763885,401.038574 453.914520,403.076752 453.919220,405.117554 
	C454.024017,450.688873 453.971497,496.260559 454.106140,541.831726 
	C454.112244,543.898376 455.593567,545.960693 456.804626,548.101929 
z"/>
<path fill="#008E2D" opacity="1.000000" stroke="none" 
	d="
M400.003082,555.990234 
	C399.826996,555.985840 399.650879,555.981445 399.210205,555.969604 
	C398.969849,513.498962 398.988007,471.035736 399.037323,428.572540 
	C399.039612,426.596222 399.320404,424.620209 399.731812,422.787659 
	C399.995789,467.284271 399.999420,511.637238 400.003082,555.990234 
z"/>
<path fill="#29B479" opacity="1.000000" stroke="none" 
	d="
M400.190826,556.044006 
	C399.999420,511.637238 399.995789,467.284271 399.988922,422.461792 
	C399.985718,421.992279 400.385254,421.947815 400.585449,421.929871 
	C400.857422,425.646301 400.929199,429.380707 401.011475,434.017700 
	C401.063416,437.602020 401.104889,440.283722 401.146362,442.965393 
	C401.097351,451.011047 401.048309,459.056732 401.012329,467.958740 
	C401.065521,469.865753 401.105652,470.916382 401.145752,471.967010 
	C401.095673,478.678864 401.045624,485.390717 401.008301,492.958649 
	C401.061523,494.865326 401.102020,495.915924 401.142517,496.966522 
	C401.091644,505.344208 401.040771,513.721863 401.007446,522.886475 
	C401.064270,524.105530 401.103577,524.537781 401.142883,524.969971 
	C401.093658,529.681091 401.044403,534.392151 401.009949,539.888123 
	C401.064178,541.105530 401.103607,541.538086 401.143005,541.970642 
	C401.069519,546.377869 400.996033,550.785095 400.845215,555.660950 
	C400.767853,556.129578 400.378571,556.097778 400.190826,556.044006 
z"/>
<path fill="#FFFCFE" opacity="1.000000" stroke="none" 
	d="
M451.905701,398.631073 
	C452.092987,399.163788 452.038971,399.328400 451.908752,399.741516 
	C447.055023,399.971069 442.277527,399.952148 437.001587,399.903137 
	C437.478210,399.266113 438.437042,398.170593 439.431030,398.137726 
	C443.502991,398.003204 447.585632,398.192719 451.905701,398.631073 
z"/>
<path fill="#049840" opacity="1.000000" stroke="none" 
	d="
M256.754272,514.902710 
	C252.586227,515.166687 248.257370,515.061523 243.466080,515.016113 
	C247.416702,511.965485 251.955933,512.017578 256.754272,514.902710 
z"/>
<path fill="#CCEBDE" opacity="1.000000" stroke="none" 
	d="
M241.528488,516.905396 
	C240.435242,517.852661 239.014832,518.872375 237.223831,519.900513 
	C238.302597,518.931824 239.751953,517.954834 241.528488,516.905396 
z"/>
<path fill="#049840" opacity="1.000000" stroke="none" 
	d="
M242.844116,515.039246 
	C242.886276,515.328979 242.711960,515.617859 242.290253,515.984985 
	C242.237793,515.721619 242.432709,515.380005 242.844116,515.039246 
z"/>
<path fill="#009B43" opacity="1.000000" stroke="none" 
	d="
M458.895966,547.167664 
	C458.719269,547.493835 458.216156,547.821228 457.404175,548.213745 
	C457.586731,547.908875 458.078125,547.538879 458.895966,547.167664 
z"/>
<path fill="#CCEBDE" opacity="1.000000" stroke="none" 
	d="
M235.788284,520.306763 
	C235.908798,520.582153 235.710709,520.797852 235.193085,520.957275 
	C235.101486,520.710327 235.300201,520.492310 235.788284,520.306763 
z"/>
<path fill="#009B43" opacity="1.000000" stroke="none" 
	d="
M459.873596,546.777100 
	C460.004425,546.879639 459.606720,547.143677 459.373230,547.193970 
	C459.172791,546.824097 459.373779,546.634155 459.873596,546.777100 
z"/>
<path fill="#CCEBDE" opacity="1.000000" stroke="none" 
	d="
M311.790100,477.151489 
	C311.874176,477.422424 311.646240,477.640045 311.129211,477.856384 
	C311.111115,477.663879 311.323761,477.411560 311.790100,477.151489 
z"/>
<path fill="#CCEBDE" opacity="1.000000" stroke="none" 
	d="
M312.831696,476.611542 
	C312.923828,476.800903 312.783264,476.959412 312.398804,477.064453 
	C312.332275,476.886047 312.480316,476.742615 312.831696,476.611542 
z"/>
<path fill="#FFFCFE" opacity="1.000000" stroke="none" 
	d="
M341.692505,459.118073 
	C341.701080,459.342499 341.427155,459.541168 340.910004,459.821686 
	C340.914551,459.633118 341.162292,459.362701 341.692505,459.118073 
z"/>
<path fill="#FFFCFE" opacity="1.000000" stroke="none" 
	d="
M401.767578,420.934875 
	C401.860046,421.131042 401.673248,421.414398 401.290527,421.860535 
	C401.225861,421.689606 401.357117,421.355835 401.767578,420.934875 
z"/>
<path fill="#FFFCFE" opacity="1.000000" stroke="none" 
	d="
M401.365326,442.649170 
	C401.104889,440.283722 401.063416,437.602020 401.083252,434.477112 
	C401.291138,436.800232 401.437714,439.566589 401.365326,442.649170 
z"/>
<path fill="#FFFCFE" opacity="1.000000" stroke="none" 
	d="
M401.345825,471.727234 
	C401.105652,470.916382 401.065521,469.865753 401.085358,468.424530 
	C401.278839,469.185120 401.412323,470.336273 401.345825,471.727234 
z"/>
<path fill="#FFFCFE" opacity="1.000000" stroke="none" 
	d="
M401.343445,496.727173 
	C401.102020,495.915924 401.061523,494.865326 401.081909,493.424225 
	C401.276642,494.185089 401.410522,495.336487 401.343445,496.727173 
z"/>
<path fill="#FFFCFE" opacity="1.000000" stroke="none" 
	d="
M401.311798,524.807251 
	C401.103577,524.537781 401.064270,524.105530 401.082764,523.351685 
	C401.253937,523.568115 401.367340,524.106323 401.311798,524.807251 
z"/>
<path fill="#FFFCFE" opacity="1.000000" stroke="none" 
	d="
M401.311981,541.807861 
	C401.103607,541.538086 401.064178,541.105530 401.083313,540.351196 
	C401.254883,540.567993 401.367920,541.106567 401.311981,541.807861 
z"/>
</svg>